<?xml version="1.0" encoding="UTF-8"?>
<svg xmlns="http://www.w3.org/2000/svg" xmlns:xlink="http://www.w3.org/1999/xlink" width="800px" height="800px" viewBox="0 0 600 600" version="1.1">
<g id="surface1">
<path style=" stroke:none;fill-rule:evenodd;fill:rgb(45.882353%,54.901963%,63.921571%);fill-opacity:1;" d="M 557.140625 0 L 42.722656 0 C 19.152344 0 0 19.417969 0 43.257812 L 0 556.738281 C 0 580.578125 19.152344 600 42.722656 600 L 557.140625 600 C 580.714844 600 600 580.578125 600 556.738281 L 600 43.257812 C 600 19.417969 580.714844 0 557.140625 0 Z M 181.339844 514.285156 L 92.410156 514.285156 L 92.410156 227.945312 L 181.472656 227.945312 L 181.472656 514.285156 Z M 136.875 188.839844 C 108.347656 188.839844 85.3125 165.667969 85.3125 137.277344 C 85.3125 108.882812 108.347656 85.714844 136.875 85.714844 C 165.269531 85.714844 188.4375 108.882812 188.4375 137.277344 C 188.4375 165.804688 165.402344 188.839844 136.875 188.839844 Z M 514.6875 514.285156 L 425.761719 514.285156 L 425.761719 375 C 425.761719 341.785156 425.089844 299.0625 379.550781 299.0625 C 333.214844 299.0625 326.113281 335.222656 326.113281 372.589844 L 326.113281 514.285156 L 237.1875 514.285156 L 237.1875 227.945312 L 322.5 227.945312 L 322.5 267.050781 L 323.703125 267.050781 C 335.625 244.554688 364.6875 220.847656 407.949219 220.847656 C 497.949219 220.847656 514.6875 280.175781 514.6875 357.324219 Z M 514.6875 514.285156 "/>
</g>
</svg>
